<svg xmlns="http://www.w3.org/2000/svg" xmlns:xlink="http://www.w3.org/1999/xlink" width="500" zoomAndPan="magnify" viewBox="0 0 375 374.999991" height="500" preserveAspectRatio="xMidYMid meet" version="1.0"><defs><g/><clipPath id="e886b75d40"><path d="M 170.671875 85.046875 L 304.125 85.046875 L 304.125 263.628906 L 170.671875 263.628906 Z M 170.671875 85.046875 " clip-rule="nonzero"/></clipPath></defs><g clip-path="url(#e886b75d40)"><path fill="#202d10" d="M 170.671875 85.046875 L 304.125 85.046875 L 304.125 263.855469 L 170.671875 263.855469 Z M 170.671875 85.046875 " fill-opacity="1" fill-rule="nonzero"/></g><g fill="#202d10" fill-opacity="1"><g transform="translate(86.667018, 255.522874)"><g><path d="M 32.5 -160.25 C 37.269531 -159.625 41.40625 -156.253906 44.90625 -150.140625 C 48.414062 -144.035156 50.800781 -136.15625 52.0625 -126.5 C 53.320312 -116.851562 52.90625 -106.414062 50.8125 -95.1875 C 48.726562 -83.96875 44.484375 -72.921875 38.078125 -62.046875 C 31.679688 -51.171875 22.632812 -41.398438 10.9375 -32.734375 C 11.289062 -28.203125 11.976562 -23.726562 13 -19.3125 C 14.019531 -14.90625 15.535156 -11.398438 17.546875 -8.796875 C 19.359375 -6.710938 21.503906 -6.0625 23.984375 -6.84375 C 26.472656 -7.632812 28.96875 -9.28125 31.46875 -11.78125 C 33.96875 -14.289062 36.238281 -17.039062 38.28125 -20.03125 C 40.332031 -23.019531 41.832031 -25.640625 42.78125 -27.890625 C 43.570312 -29.546875 44.347656 -30.375 45.109375 -30.375 C 45.878906 -30.375 46.085938 -29.546875 45.734375 -27.890625 C 44.359375 -23.910156 42.675781 -20.078125 40.6875 -16.390625 C 38.695312 -12.710938 36.101562 -9.394531 32.90625 -6.4375 C 30.46875 -4.113281 27.554688 -2.597656 24.171875 -1.890625 C 18.804688 -1.097656 14.453125 -2.523438 11.109375 -6.171875 C 7.765625 -9.816406 5.28125 -15.023438 3.65625 -21.796875 C 2.59375 -26.054688 1.863281 -32.410156 1.46875 -40.859375 C 1.082031 -49.304688 1.082031 -58.804688 1.46875 -69.359375 C 1.863281 -79.921875 2.757812 -90.617188 4.15625 -101.453125 C 5.5625 -112.285156 7.472656 -122.234375 9.890625 -131.296875 C 12.316406 -140.359375 15.390625 -147.554688 19.109375 -152.890625 C 22.835938 -158.234375 27.300781 -160.6875 32.5 -160.25 Z M 11.046875 -39.890625 C 21.453125 -49.492188 29.253906 -59.644531 34.453125 -70.34375 C 39.648438 -81.039062 42.9375 -91.53125 44.3125 -101.8125 C 45.695312 -112.09375 45.804688 -121.367188 44.640625 -129.640625 C 43.484375 -137.910156 41.671875 -144.410156 39.203125 -149.140625 C 36.742188 -153.867188 34.332031 -156.015625 31.96875 -155.578125 C 29.007812 -154.710938 26.40625 -151.679688 24.15625 -146.484375 C 21.914062 -141.285156 20.015625 -134.71875 18.453125 -126.78125 C 16.898438 -118.84375 15.601562 -110.363281 14.5625 -101.34375 C 13.519531 -92.320312 12.710938 -83.582031 12.140625 -75.125 C 11.566406 -66.675781 11.203125 -59.3125 11.046875 -53.03125 C 10.890625 -46.75 10.890625 -42.367188 11.046875 -39.890625 Z M 11.046875 -39.890625 "/></g></g></g><g fill="#202d10" fill-opacity="1"><g transform="translate(128.677052, 255.522874)"><g><path d="M 13.234375 -10.640625 C 9.765625 -10.710938 6.945312 -12.265625 4.78125 -15.296875 C 2.613281 -18.335938 1.253906 -22.171875 0.703125 -26.796875 C 0.148438 -31.421875 0.601562 -36.160156 2.0625 -41.015625 C 2.414062 -42.503906 3.382812 -43.585938 4.96875 -44.265625 C 6.070312 -44.617188 7.210938 -44.554688 8.390625 -44.078125 C 9.566406 -43.609375 10.195312 -42.800781 10.28125 -41.65625 C 10.28125 -40.632812 10.179688 -39.609375 9.984375 -38.578125 C 9.828125 -37.796875 9.707031 -37.050781 9.625 -36.34375 C 9.4375 -33.5 9.5 -30.382812 9.8125 -27 C 10.125 -23.613281 11.007812 -20.703125 12.46875 -18.265625 C 13.96875 -16.367188 15.625 -16.140625 17.4375 -17.578125 C 19.25 -19.015625 20.84375 -21.25 22.21875 -24.28125 C 23.28125 -26.6875 24.101562 -29.082031 24.6875 -31.46875 C 25.28125 -33.851562 25.675781 -35.691406 25.875 -36.984375 C 26.039062 -37.503906 26.125 -37.859375 26.125 -38.046875 C 26.394531 -39.078125 26.648438 -40.125 26.890625 -41.1875 C 27.316406 -42.5625 27.75 -43.941406 28.1875 -45.328125 C 28.976562 -48.003906 30.890625 -49.125 33.921875 -48.6875 C 35.734375 -48.53125 36.738281 -47.625 36.9375 -45.96875 C 37.09375 -43.726562 37.128906 -41.484375 37.046875 -39.234375 C 36.972656 -38.253906 36.9375 -37.289062 36.9375 -36.34375 C 36.65625 -32.363281 36.5625 -28.132812 36.65625 -23.65625 C 36.757812 -19.1875 37.5 -15.5 38.875 -12.59375 C 39.039062 -12.226562 39.101562 -11.703125 39.0625 -11.015625 C 39.019531 -10.328125 38.800781 -9.65625 38.40625 -9 C 38.007812 -8.351562 37.378906 -7.960938 36.515625 -7.828125 C 35.648438 -7.691406 34.488281 -8.054688 33.03125 -8.921875 C 30.863281 -10.296875 29.472656 -12.175781 28.859375 -14.5625 C 28.253906 -16.945312 27.953125 -19.265625 27.953125 -21.515625 C 27.867188 -22.804688 27.789062 -23.945312 27.71875 -24.9375 C 26.925781 -20.40625 25.140625 -16.90625 22.359375 -14.4375 C 19.585938 -11.976562 16.546875 -10.710938 13.234375 -10.640625 Z M 13.234375 -10.640625 "/></g></g></g><g fill="#f8f7f2" fill-opacity="1"><g transform="translate(172.999044, 255.522874)"><g><path d="M 32.5 -160.25 C 37.269531 -159.625 41.40625 -156.253906 44.90625 -150.140625 C 48.414062 -144.035156 50.800781 -136.15625 52.0625 -126.5 C 53.320312 -116.851562 52.90625 -106.414062 50.8125 -95.1875 C 48.726562 -83.96875 44.484375 -72.921875 38.078125 -62.046875 C 31.679688 -51.171875 22.632812 -41.398438 10.9375 -32.734375 C 11.289062 -28.203125 11.976562 -23.726562 13 -19.3125 C 14.019531 -14.90625 15.535156 -11.398438 17.546875 -8.796875 C 19.359375 -6.710938 21.503906 -6.0625 23.984375 -6.84375 C 26.472656 -7.632812 28.96875 -9.28125 31.46875 -11.78125 C 33.96875 -14.289062 36.238281 -17.039062 38.28125 -20.03125 C 40.332031 -23.019531 41.832031 -25.640625 42.78125 -27.890625 C 43.570312 -29.546875 44.347656 -30.375 45.109375 -30.375 C 45.878906 -30.375 46.085938 -29.546875 45.734375 -27.890625 C 44.359375 -23.910156 42.675781 -20.078125 40.6875 -16.390625 C 38.695312 -12.710938 36.101562 -9.394531 32.90625 -6.4375 C 30.46875 -4.113281 27.554688 -2.597656 24.171875 -1.890625 C 18.804688 -1.097656 14.453125 -2.523438 11.109375 -6.171875 C 7.765625 -9.816406 5.28125 -15.023438 3.65625 -21.796875 C 2.59375 -26.054688 1.863281 -32.410156 1.46875 -40.859375 C 1.082031 -49.304688 1.082031 -58.804688 1.46875 -69.359375 C 1.863281 -79.921875 2.757812 -90.617188 4.15625 -101.453125 C 5.5625 -112.285156 7.472656 -122.234375 9.890625 -131.296875 C 12.316406 -140.359375 15.390625 -147.554688 19.109375 -152.890625 C 22.835938 -158.234375 27.300781 -160.6875 32.5 -160.25 Z M 11.046875 -39.890625 C 21.453125 -49.492188 29.253906 -59.644531 34.453125 -70.34375 C 39.648438 -81.039062 42.9375 -91.53125 44.3125 -101.8125 C 45.695312 -112.09375 45.804688 -121.367188 44.640625 -129.640625 C 43.484375 -137.910156 41.671875 -144.410156 39.203125 -149.140625 C 36.742188 -153.867188 34.332031 -156.015625 31.96875 -155.578125 C 29.007812 -154.710938 26.40625 -151.679688 24.15625 -146.484375 C 21.914062 -141.285156 20.015625 -134.71875 18.453125 -126.78125 C 16.898438 -118.84375 15.601562 -110.363281 14.5625 -101.34375 C 13.519531 -92.320312 12.710938 -83.582031 12.140625 -75.125 C 11.566406 -66.675781 11.203125 -59.3125 11.046875 -53.03125 C 10.890625 -46.75 10.890625 -42.367188 11.046875 -39.890625 Z M 11.046875 -39.890625 "/></g></g></g><g fill="#f8f7f2" fill-opacity="1"><g transform="translate(215.009077, 255.522874)"><g><path d="M 13.234375 -10.640625 C 9.765625 -10.710938 6.945312 -12.265625 4.78125 -15.296875 C 2.613281 -18.335938 1.253906 -22.171875 0.703125 -26.796875 C 0.148438 -31.421875 0.601562 -36.160156 2.0625 -41.015625 C 2.414062 -42.503906 3.382812 -43.585938 4.96875 -44.265625 C 6.070312 -44.617188 7.210938 -44.554688 8.390625 -44.078125 C 9.566406 -43.609375 10.195312 -42.800781 10.28125 -41.65625 C 10.28125 -40.632812 10.179688 -39.609375 9.984375 -38.578125 C 9.828125 -37.796875 9.707031 -37.050781 9.625 -36.34375 C 9.4375 -33.5 9.5 -30.382812 9.8125 -27 C 10.125 -23.613281 11.007812 -20.703125 12.46875 -18.265625 C 13.96875 -16.367188 15.625 -16.140625 17.4375 -17.578125 C 19.25 -19.015625 20.84375 -21.25 22.21875 -24.28125 C 23.28125 -26.6875 24.101562 -29.082031 24.6875 -31.46875 C 25.28125 -33.851562 25.675781 -35.691406 25.875 -36.984375 C 26.039062 -37.503906 26.125 -37.859375 26.125 -38.046875 C 26.394531 -39.078125 26.648438 -40.125 26.890625 -41.1875 C 27.316406 -42.5625 27.75 -43.941406 28.1875 -45.328125 C 28.976562 -48.003906 30.890625 -49.125 33.921875 -48.6875 C 35.734375 -48.53125 36.738281 -47.625 36.9375 -45.96875 C 37.09375 -43.726562 37.128906 -41.484375 37.046875 -39.234375 C 36.972656 -38.253906 36.9375 -37.289062 36.9375 -36.34375 C 36.65625 -32.363281 36.5625 -28.132812 36.65625 -23.65625 C 36.757812 -19.1875 37.5 -15.5 38.875 -12.59375 C 39.039062 -12.226562 39.101562 -11.703125 39.0625 -11.015625 C 39.019531 -10.328125 38.800781 -9.65625 38.40625 -9 C 38.007812 -8.351562 37.378906 -7.960938 36.515625 -7.828125 C 35.648438 -7.691406 34.488281 -8.054688 33.03125 -8.921875 C 30.863281 -10.296875 29.472656 -12.175781 28.859375 -14.5625 C 28.253906 -16.945312 27.953125 -19.265625 27.953125 -21.515625 C 27.867188 -22.804688 27.789062 -23.945312 27.71875 -24.9375 C 26.925781 -20.40625 25.140625 -16.90625 22.359375 -14.4375 C 19.585938 -11.976562 16.546875 -10.710938 13.234375 -10.640625 Z M 13.234375 -10.640625 "/></g></g></g><g fill="#202d10" fill-opacity="1"><g transform="translate(168.801394, 283.515909)"><g><path d="M 0.359375 0 C 0.460938 -0.144531 0.578125 -0.3125 0.703125 -0.5 C 0.828125 -0.695312 0.992188 -0.992188 1.203125 -1.390625 L 6.03125 -10.28125 C 6.257812 -10.675781 6.414062 -10.96875 6.5 -11.15625 C 6.59375 -11.351562 6.660156 -11.523438 6.703125 -11.671875 L 7.921875 -11.671875 C 7.984375 -11.453125 8.066406 -11.226562 8.171875 -11 C 8.285156 -10.769531 8.398438 -10.539062 8.515625 -10.3125 L 13.375 -1.390625 C 13.582031 -0.992188 13.742188 -0.695312 13.859375 -0.5 C 13.972656 -0.3125 14.085938 -0.144531 14.203125 0 L 13.125 0 C 13.070312 -0.144531 13 -0.3125 12.90625 -0.5 C 12.820312 -0.695312 12.675781 -0.992188 12.46875 -1.390625 L 11.46875 -3.171875 L 3.09375 -3.171875 L 2.09375 -1.390625 C 1.882812 -0.992188 1.734375 -0.695312 1.640625 -0.5 C 1.554688 -0.3125 1.492188 -0.144531 1.453125 0 Z M 3.484375 -3.90625 L 11.0625 -3.90625 L 8.21875 -9.171875 L 7.3125 -10.8125 L 7.21875 -10.8125 C 7.070312 -10.539062 6.921875 -10.269531 6.765625 -10 C 6.617188 -9.726562 6.46875 -9.445312 6.3125 -9.15625 Z M 3.484375 -3.90625 "/></g></g></g><g fill="#202d10" fill-opacity="1"><g transform="translate(183.356547, 283.515909)"><g><path d="M 1.78125 0 C 1.800781 -0.144531 1.820312 -0.3125 1.84375 -0.5 C 1.863281 -0.695312 1.875 -0.992188 1.875 -1.390625 L 1.875 -10.28125 C 1.875 -10.675781 1.863281 -10.96875 1.84375 -11.15625 C 1.820312 -11.351562 1.800781 -11.523438 1.78125 -11.671875 L 2.796875 -11.671875 C 2.765625 -11.523438 2.738281 -11.351562 2.71875 -11.15625 C 2.707031 -10.96875 2.703125 -10.675781 2.703125 -10.28125 L 2.703125 -1.390625 C 2.703125 -0.992188 2.707031 -0.695312 2.71875 -0.5 C 2.738281 -0.3125 2.765625 -0.144531 2.796875 0 Z M 1.78125 0 "/></g></g></g><g fill="#202d10" fill-opacity="1"><g transform="translate(187.936259, 283.515909)"><g/></g></g><g fill="#202d10" fill-opacity="1"><g transform="translate(193.015578, 283.515909)"><g><path d="M 6.671875 0.234375 C 5.710938 0.234375 4.734375 0.125 3.734375 -0.09375 C 2.734375 -0.3125 1.789062 -0.625 0.90625 -1.03125 L 0.953125 -1.921875 C 1.859375 -1.441406 2.800781 -1.085938 3.78125 -0.859375 C 4.769531 -0.640625 5.742188 -0.53125 6.703125 -0.53125 C 7.578125 -0.53125 8.347656 -0.632812 9.015625 -0.84375 C 9.679688 -1.0625 10.203125 -1.359375 10.578125 -1.734375 C 10.960938 -2.117188 11.15625 -2.566406 11.15625 -3.078125 C 11.15625 -3.535156 11.015625 -3.90625 10.734375 -4.1875 C 10.453125 -4.476562 10.070312 -4.707031 9.59375 -4.875 C 9.125 -5.050781 8.59375 -5.191406 8 -5.296875 C 7.414062 -5.410156 6.804688 -5.515625 6.171875 -5.609375 C 5.535156 -5.710938 4.921875 -5.832031 4.328125 -5.96875 C 3.742188 -6.113281 3.210938 -6.296875 2.734375 -6.515625 C 2.253906 -6.742188 1.875 -7.035156 1.59375 -7.390625 C 1.320312 -7.753906 1.1875 -8.207031 1.1875 -8.75 C 1.1875 -9.414062 1.425781 -9.984375 1.90625 -10.453125 C 2.394531 -10.921875 3.03125 -11.28125 3.8125 -11.53125 C 4.601562 -11.78125 5.460938 -11.90625 6.390625 -11.90625 C 7.265625 -11.90625 8.101562 -11.8125 8.90625 -11.625 C 9.71875 -11.4375 10.40625 -11.207031 10.96875 -10.9375 L 10.96875 -10.0625 C 10.425781 -10.375 9.742188 -10.628906 8.921875 -10.828125 C 8.097656 -11.035156 7.253906 -11.140625 6.390625 -11.140625 C 5.640625 -11.148438 4.929688 -11.0625 4.265625 -10.875 C 3.609375 -10.6875 3.070312 -10.414062 2.65625 -10.0625 C 2.238281 -9.707031 2.03125 -9.28125 2.03125 -8.78125 C 2.03125 -8.34375 2.171875 -7.984375 2.453125 -7.703125 C 2.734375 -7.421875 3.109375 -7.191406 3.578125 -7.015625 C 4.054688 -6.847656 4.585938 -6.707031 5.171875 -6.59375 C 5.765625 -6.488281 6.375 -6.382812 7 -6.28125 C 7.632812 -6.1875 8.242188 -6.070312 8.828125 -5.9375 C 9.421875 -5.800781 9.957031 -5.617188 10.4375 -5.390625 C 10.914062 -5.160156 11.289062 -4.863281 11.5625 -4.5 C 11.84375 -4.144531 11.984375 -3.691406 11.984375 -3.140625 C 11.984375 -2.472656 11.765625 -1.882812 11.328125 -1.375 C 10.890625 -0.863281 10.269531 -0.46875 9.46875 -0.1875 C 8.675781 0.09375 7.742188 0.234375 6.671875 0.234375 Z M 6.671875 0.234375 "/></g></g></g><g fill="#202d10" fill-opacity="1"><g transform="translate(205.955337, 283.515909)"><g><path d="M 5.421875 0.234375 C 4.890625 0.234375 4.398438 0.140625 3.953125 -0.046875 C 3.515625 -0.234375 3.160156 -0.53125 2.890625 -0.9375 C 2.628906 -1.34375 2.5 -1.875 2.5 -2.53125 L 2.5 -7.640625 L 0.28125 -7.640625 L 0.28125 -8.34375 L 2.5 -8.34375 L 2.5 -11.484375 L 3.265625 -11.671875 L 3.265625 -8.34375 L 7.453125 -8.34375 L 7.453125 -7.640625 L 3.265625 -7.640625 L 3.265625 -2.546875 C 3.265625 -2.015625 3.363281 -1.59375 3.5625 -1.28125 C 3.769531 -0.976562 4.039062 -0.757812 4.375 -0.625 C 4.707031 -0.5 5.070312 -0.4375 5.46875 -0.4375 C 5.84375 -0.4375 6.222656 -0.476562 6.609375 -0.5625 C 6.992188 -0.65625 7.289062 -0.769531 7.5 -0.90625 L 7.5 -0.1875 C 7.257812 -0.0703125 6.941406 0.0234375 6.546875 0.109375 C 6.160156 0.191406 5.785156 0.234375 5.421875 0.234375 Z M 5.421875 0.234375 "/></g></g></g><g fill="#202d10" fill-opacity="1"><g transform="translate(213.699214, 283.515909)"><g><path d="M 5.703125 3.75 C 4.992188 3.75 4.25 3.660156 3.46875 3.484375 C 2.695312 3.316406 2.03125 3.078125 1.46875 2.765625 L 1.5 1.96875 C 2.050781 2.3125 2.703125 2.570312 3.453125 2.75 C 4.210938 2.9375 4.953125 3.03125 5.671875 3.03125 C 6.554688 3.03125 7.347656 2.910156 8.046875 2.671875 C 8.753906 2.429688 9.304688 2.050781 9.703125 1.53125 C 10.109375 1.007812 10.3125 0.316406 10.3125 -0.546875 C 10.3125 -0.828125 10.265625 -1.128906 10.171875 -1.453125 C 10.078125 -1.773438 9.941406 -2.070312 9.765625 -2.34375 L 9.671875 -2.34375 C 9.492188 -1.75 9.195312 -1.257812 8.78125 -0.875 C 8.363281 -0.488281 7.890625 -0.207031 7.359375 -0.03125 C 6.828125 0.144531 6.296875 0.234375 5.765625 0.234375 C 4.523438 0.234375 3.539062 -0.09375 2.8125 -0.75 C 2.082031 -1.414062 1.71875 -2.351562 1.71875 -3.5625 L 1.71875 -6.96875 C 1.71875 -7.351562 1.707031 -7.640625 1.6875 -7.828125 C 1.675781 -8.023438 1.660156 -8.195312 1.640625 -8.34375 L 2.5625 -8.34375 C 2.539062 -8.195312 2.519531 -8.023438 2.5 -7.828125 C 2.488281 -7.640625 2.484375 -7.351562 2.484375 -6.96875 L 2.484375 -3.578125 C 2.484375 -2.546875 2.785156 -1.769531 3.390625 -1.25 C 3.992188 -0.738281 4.800781 -0.484375 5.8125 -0.484375 C 6.519531 -0.484375 7.171875 -0.648438 7.765625 -0.984375 C 8.359375 -1.316406 8.832031 -1.757812 9.1875 -2.3125 C 9.550781 -2.875 9.734375 -3.484375 9.734375 -4.140625 L 9.734375 -6.96875 C 9.734375 -7.351562 9.722656 -7.640625 9.703125 -7.828125 C 9.691406 -8.023438 9.671875 -8.195312 9.640625 -8.34375 L 10.59375 -8.34375 C 10.5625 -8.195312 10.535156 -8.023438 10.515625 -7.828125 C 10.503906 -7.640625 10.5 -7.351562 10.5 -6.96875 L 10.5 -2.46875 C 10.6875 -2.175781 10.828125 -1.859375 10.921875 -1.515625 C 11.015625 -1.171875 11.0625 -0.859375 11.0625 -0.578125 C 11.0625 0.441406 10.816406 1.269531 10.328125 1.90625 C 9.847656 2.550781 9.203125 3.019531 8.390625 3.3125 C 7.578125 3.601562 6.679688 3.75 5.703125 3.75 Z M 5.703125 3.75 "/></g></g></g><g fill="#202d10" fill-opacity="1"><g transform="translate(226.156025, 283.515909)"><g><path d="M 1.65625 0 C 1.675781 -0.144531 1.695312 -0.3125 1.71875 -0.5 C 1.738281 -0.695312 1.75 -0.992188 1.75 -1.390625 L 1.75 -10.28125 C 1.75 -10.675781 1.738281 -10.96875 1.71875 -11.15625 C 1.695312 -11.351562 1.675781 -11.523438 1.65625 -11.671875 L 2.578125 -11.671875 C 2.554688 -11.523438 2.535156 -11.351562 2.515625 -11.15625 C 2.503906 -10.96875 2.5 -10.675781 2.5 -10.28125 L 2.5 -1.390625 C 2.5 -0.992188 2.503906 -0.695312 2.515625 -0.5 C 2.535156 -0.3125 2.554688 -0.144531 2.578125 0 Z M 1.65625 0 "/></g></g></g><g fill="#202d10" fill-opacity="1"><g transform="translate(230.386012, 283.515909)"><g><path d="M 2.046875 -10.359375 C 1.867188 -10.359375 1.710938 -10.414062 1.578125 -10.53125 C 1.453125 -10.65625 1.390625 -10.800781 1.390625 -10.96875 C 1.390625 -11.144531 1.453125 -11.296875 1.578125 -11.421875 C 1.710938 -11.546875 1.867188 -11.609375 2.046875 -11.609375 C 2.234375 -11.609375 2.390625 -11.546875 2.515625 -11.421875 C 2.640625 -11.296875 2.703125 -11.144531 2.703125 -10.96875 C 2.703125 -10.800781 2.640625 -10.65625 2.515625 -10.53125 C 2.390625 -10.414062 2.234375 -10.359375 2.046875 -10.359375 Z M 1.5625 0 C 1.59375 -0.15625 1.617188 -0.328125 1.640625 -0.515625 C 1.660156 -0.703125 1.671875 -0.992188 1.671875 -1.390625 L 1.671875 -6.953125 C 1.671875 -7.335938 1.660156 -7.628906 1.640625 -7.828125 C 1.617188 -8.023438 1.59375 -8.195312 1.5625 -8.34375 C 1.6875 -8.3125 1.847656 -8.296875 2.046875 -8.296875 C 2.242188 -8.296875 2.398438 -8.3125 2.515625 -8.34375 C 2.484375 -8.195312 2.457031 -8.023438 2.4375 -7.828125 C 2.425781 -7.628906 2.421875 -7.335938 2.421875 -6.953125 L 2.421875 -1.390625 C 2.421875 -0.992188 2.425781 -0.703125 2.4375 -0.515625 C 2.457031 -0.328125 2.484375 -0.15625 2.515625 0 Z M 1.5625 0 "/></g></g></g><g fill="#202d10" fill-opacity="1"><g transform="translate(234.466119, 283.515909)"><g><path d="M 5.171875 0.234375 C 4.703125 0.234375 4.1875 0.191406 3.625 0.109375 C 3.070312 0.0234375 2.539062 -0.0859375 2.03125 -0.234375 C 1.53125 -0.378906 1.113281 -0.535156 0.78125 -0.703125 L 0.828125 -1.453125 C 1.171875 -1.265625 1.585938 -1.085938 2.078125 -0.921875 C 2.566406 -0.765625 3.082031 -0.640625 3.625 -0.546875 C 4.175781 -0.460938 4.691406 -0.421875 5.171875 -0.421875 C 6.140625 -0.421875 6.898438 -0.570312 7.453125 -0.875 C 8.015625 -1.1875 8.296875 -1.613281 8.296875 -2.15625 C 8.296875 -2.539062 8.164062 -2.847656 7.90625 -3.078125 C 7.65625 -3.304688 7.316406 -3.484375 6.890625 -3.609375 C 6.460938 -3.734375 5.992188 -3.832031 5.484375 -3.90625 C 4.984375 -3.988281 4.476562 -4.070312 3.96875 -4.15625 C 3.46875 -4.25 3.003906 -4.375 2.578125 -4.53125 C 2.148438 -4.6875 1.804688 -4.90625 1.546875 -5.1875 C 1.296875 -5.46875 1.171875 -5.835938 1.171875 -6.296875 C 1.171875 -6.765625 1.332031 -7.164062 1.65625 -7.5 C 1.988281 -7.84375 2.441406 -8.101562 3.015625 -8.28125 C 3.597656 -8.46875 4.253906 -8.5625 4.984375 -8.5625 C 5.367188 -8.5625 5.769531 -8.53125 6.1875 -8.46875 C 6.613281 -8.414062 7.023438 -8.34375 7.421875 -8.25 C 7.816406 -8.15625 8.15625 -8.050781 8.4375 -7.9375 L 8.4375 -7.25 C 8.175781 -7.363281 7.847656 -7.472656 7.453125 -7.578125 C 7.066406 -7.679688 6.648438 -7.765625 6.203125 -7.828125 C 5.765625 -7.898438 5.351562 -7.9375 4.96875 -7.9375 C 4.4375 -7.9375 3.9375 -7.875 3.46875 -7.75 C 3.007812 -7.625 2.640625 -7.441406 2.359375 -7.203125 C 2.078125 -6.972656 1.9375 -6.675781 1.9375 -6.3125 C 1.9375 -5.945312 2.0625 -5.660156 2.3125 -5.453125 C 2.570312 -5.242188 2.910156 -5.078125 3.328125 -4.953125 C 3.753906 -4.835938 4.21875 -4.742188 4.71875 -4.671875 C 5.226562 -4.597656 5.738281 -4.515625 6.25 -4.421875 C 6.757812 -4.335938 7.222656 -4.210938 7.640625 -4.046875 C 8.066406 -3.878906 8.40625 -3.648438 8.65625 -3.359375 C 8.914062 -3.066406 9.046875 -2.675781 9.046875 -2.1875 C 9.046875 -1.5 8.707031 -0.921875 8.03125 -0.453125 C 7.351562 0.00390625 6.398438 0.234375 5.171875 0.234375 Z M 5.171875 0.234375 "/></g></g></g><g fill="#202d10" fill-opacity="1"><g transform="translate(244.424899, 283.515909)"><g><path d="M 5.421875 0.234375 C 4.890625 0.234375 4.398438 0.140625 3.953125 -0.046875 C 3.515625 -0.234375 3.160156 -0.53125 2.890625 -0.9375 C 2.628906 -1.34375 2.5 -1.875 2.5 -2.53125 L 2.5 -7.640625 L 0.28125 -7.640625 L 0.28125 -8.34375 L 2.5 -8.34375 L 2.5 -11.484375 L 3.265625 -11.671875 L 3.265625 -8.34375 L 7.453125 -8.34375 L 7.453125 -7.640625 L 3.265625 -7.640625 L 3.265625 -2.546875 C 3.265625 -2.015625 3.363281 -1.59375 3.5625 -1.28125 C 3.769531 -0.976562 4.039062 -0.757812 4.375 -0.625 C 4.707031 -0.5 5.070312 -0.4375 5.46875 -0.4375 C 5.84375 -0.4375 6.222656 -0.476562 6.609375 -0.5625 C 6.992188 -0.65625 7.289062 -0.769531 7.5 -0.90625 L 7.5 -0.1875 C 7.257812 -0.0703125 6.941406 0.0234375 6.546875 0.109375 C 6.160156 0.191406 5.785156 0.234375 5.421875 0.234375 Z M 5.421875 0.234375 "/></g></g></g><g fill="#202d10" fill-opacity="1"><g transform="translate(102.358801, 284.204705)"><g><path d="M 5.8125 -0.015625 C 5.894531 -0.304688 5.957031 -0.65625 6 -1.0625 C 6.050781 -1.476562 6.078125 -1.945312 6.078125 -2.46875 L 6.078125 -4.40625 L 1.96875 -9.421875 C 1.601562 -9.898438 1.253906 -10.332031 0.921875 -10.71875 C 0.585938 -11.101562 0.285156 -11.421875 0.015625 -11.671875 L 3.515625 -11.671875 C 3.640625 -11.429688 3.789062 -11.160156 3.96875 -10.859375 C 4.144531 -10.566406 4.382812 -10.207031 4.6875 -9.78125 L 7.296875 -6.53125 L 7.453125 -6.53125 L 10.0625 -9.78125 C 10.382812 -10.207031 10.628906 -10.566406 10.796875 -10.859375 C 10.972656 -11.160156 11.125 -11.429688 11.25 -11.671875 L 14.734375 -11.671875 C 14.484375 -11.421875 14.191406 -11.101562 13.859375 -10.71875 C 13.523438 -10.332031 13.171875 -9.898438 12.796875 -9.421875 L 8.6875 -4.390625 L 8.6875 -2.453125 C 8.6875 -1.929688 8.710938 -1.46875 8.765625 -1.0625 C 8.816406 -0.65625 8.878906 -0.304688 8.953125 -0.015625 Z M 5.8125 -0.015625 "/></g></g></g><g fill="#202d10" fill-opacity="1"><g transform="translate(117.113253, 284.204705)"><g><path d="M 7.96875 0.234375 C 6.582031 0.234375 5.34375 -0.00390625 4.25 -0.484375 C 3.164062 -0.972656 2.3125 -1.671875 1.6875 -2.578125 C 1.0625 -3.484375 0.75 -4.566406 0.75 -5.828125 C 0.75 -7.097656 1.0625 -8.1875 1.6875 -9.09375 C 2.3125 -10 3.164062 -10.691406 4.25 -11.171875 C 5.34375 -11.660156 6.582031 -11.90625 7.96875 -11.90625 C 9.351562 -11.90625 10.59375 -11.660156 11.6875 -11.171875 C 12.78125 -10.691406 13.632812 -10 14.25 -9.09375 C 14.875 -8.1875 15.1875 -7.097656 15.1875 -5.828125 C 15.1875 -4.566406 14.875 -3.484375 14.25 -2.578125 C 13.632812 -1.671875 12.78125 -0.972656 11.6875 -0.484375 C 10.59375 -0.00390625 9.351562 0.234375 7.96875 0.234375 Z M 7.96875 -1.828125 C 8.84375 -1.828125 9.625 -1.988281 10.3125 -2.3125 C 11.007812 -2.632812 11.554688 -3.09375 11.953125 -3.6875 C 12.347656 -4.289062 12.546875 -5.003906 12.546875 -5.828125 C 12.546875 -6.660156 12.347656 -7.375 11.953125 -7.96875 C 11.554688 -8.570312 11.007812 -9.035156 10.3125 -9.359375 C 9.625 -9.679688 8.84375 -9.84375 7.96875 -9.84375 C 7.101562 -9.84375 6.320312 -9.679688 5.625 -9.359375 C 4.925781 -9.035156 4.378906 -8.570312 3.984375 -7.96875 C 3.585938 -7.375 3.390625 -6.660156 3.390625 -5.828125 C 3.390625 -5.003906 3.585938 -4.289062 3.984375 -3.6875 C 4.378906 -3.09375 4.925781 -2.632812 5.625 -2.3125 C 6.320312 -1.988281 7.101562 -1.828125 7.96875 -1.828125 Z M 7.96875 -1.828125 "/></g></g></g><g fill="#202d10" fill-opacity="1"><g transform="translate(133.033392, 284.204705)"><g><path d="M 7.8125 0.234375 C 6.519531 0.234375 5.398438 0.0234375 4.453125 -0.390625 C 3.515625 -0.804688 2.796875 -1.410156 2.296875 -2.203125 C 1.796875 -3.003906 1.546875 -3.972656 1.546875 -5.109375 L 1.546875 -8.875 C 1.546875 -9.4375 1.519531 -9.960938 1.46875 -10.453125 C 1.414062 -10.941406 1.34375 -11.347656 1.25 -11.671875 L 4.4375 -11.671875 C 4.351562 -11.347656 4.285156 -10.929688 4.234375 -10.421875 C 4.179688 -9.921875 4.15625 -9.394531 4.15625 -8.84375 L 4.15625 -5.484375 C 4.15625 -4.785156 4.304688 -4.175781 4.609375 -3.65625 C 4.910156 -3.144531 5.335938 -2.742188 5.890625 -2.453125 C 6.453125 -2.171875 7.09375 -2.03125 7.8125 -2.03125 C 8.550781 -2.03125 9.191406 -2.171875 9.734375 -2.453125 C 10.285156 -2.742188 10.71875 -3.144531 11.03125 -3.65625 C 11.34375 -4.175781 11.5 -4.785156 11.5 -5.484375 L 11.5 -8.84375 C 11.5 -9.394531 11.472656 -9.921875 11.421875 -10.421875 C 11.367188 -10.929688 11.296875 -11.347656 11.203125 -11.671875 L 14.40625 -11.671875 C 14.3125 -11.347656 14.238281 -10.941406 14.1875 -10.453125 C 14.132812 -9.960938 14.109375 -9.4375 14.109375 -8.875 L 14.109375 -5.109375 C 14.109375 -3.453125 13.5625 -2.144531 12.46875 -1.1875 C 11.382812 -0.238281 9.832031 0.234375 7.8125 0.234375 Z M 7.8125 0.234375 "/></g></g></g><g fill="#202d10" fill-opacity="1"><g transform="translate(148.670439, 284.204705)"><g><path d="M 13.40625 0.25 C 12.78125 0.25 12.273438 0.164062 11.890625 0 C 11.503906 -0.175781 11.191406 -0.410156 10.953125 -0.703125 C 10.722656 -0.992188 10.519531 -1.3125 10.34375 -1.65625 C 10.175781 -2 10.003906 -2.335938 9.828125 -2.671875 C 9.648438 -3.015625 9.425781 -3.328125 9.15625 -3.609375 C 8.894531 -3.898438 8.550781 -4.128906 8.125 -4.296875 C 7.695312 -4.472656 7.140625 -4.5625 6.453125 -4.5625 C 6.296875 -4.5625 6.066406 -4.554688 5.765625 -4.546875 C 5.460938 -4.535156 5.171875 -4.519531 4.890625 -4.5 C 4.609375 -4.488281 4.398438 -4.460938 4.265625 -4.421875 L 4.265625 -2.6875 C 4.265625 -1.5625 4.363281 -0.664062 4.5625 0 L 1.359375 0 C 1.453125 -0.332031 1.523438 -0.738281 1.578125 -1.21875 C 1.640625 -1.707031 1.671875 -2.234375 1.671875 -2.796875 L 1.671875 -8.875 C 1.671875 -9.4375 1.640625 -9.960938 1.578125 -10.453125 C 1.523438 -10.941406 1.453125 -11.347656 1.359375 -11.671875 L 9.4375 -11.671875 C 10.375 -11.671875 11.195312 -11.550781 11.90625 -11.3125 C 12.613281 -11.082031 13.164062 -10.738281 13.5625 -10.28125 C 13.96875 -9.832031 14.171875 -9.28125 14.171875 -8.625 C 14.171875 -8 13.976562 -7.441406 13.59375 -6.953125 C 13.21875 -6.472656 12.691406 -6.097656 12.015625 -5.828125 C 11.347656 -5.554688 10.566406 -5.421875 9.671875 -5.421875 L 8.65625 -5.421875 L 8.65625 -5.28125 L 8.78125 -5.28125 C 9.375 -5.28125 9.863281 -5.207031 10.25 -5.0625 C 10.644531 -4.914062 10.96875 -4.734375 11.21875 -4.515625 C 11.476562 -4.296875 11.695312 -4.0625 11.875 -3.8125 C 12.0625 -3.5625 12.238281 -3.320312 12.40625 -3.09375 C 12.570312 -2.875 12.753906 -2.691406 12.953125 -2.546875 C 13.160156 -2.398438 13.414062 -2.328125 13.71875 -2.328125 C 14.175781 -2.328125 14.519531 -2.429688 14.75 -2.640625 C 14.988281 -2.859375 15.179688 -3.144531 15.328125 -3.5 L 15.4375 -0.609375 C 15.25 -0.359375 14.96875 -0.15625 14.59375 0 C 14.21875 0.164062 13.820312 0.25 13.40625 0.25 Z M 4.265625 -6.421875 L 9.046875 -6.421875 C 9.816406 -6.421875 10.425781 -6.550781 10.875 -6.8125 C 11.332031 -7.070312 11.5625 -7.441406 11.5625 -7.921875 C 11.5625 -8.390625 11.34375 -8.753906 10.90625 -9.015625 C 10.46875 -9.285156 9.890625 -9.421875 9.171875 -9.421875 L 4.265625 -9.421875 Z M 4.265625 -6.421875 "/></g></g></g></svg>