<svg width="24" height="24" viewBox="0 0 24 24" fill="none" xmlns="http://www.w3.org/2000/svg">
<g id="group_3_fill" clip-path="url(#clip0_81_5659)">
<g id="Group">
<path id="Vector" d="M12 12C13.8729 12 15.5707 12.6196 16.8146 13.487C17.9981 14.3123 19 15.5381 19 16.8571C19 17.5815 18.6914 18.1811 18.2045 18.6278C17.7464 19.0481 17.1483 19.3206 16.5323 19.507C15.301 19.8797 13.6803 20 12 20C10.3197 20 8.69903 19.8797 7.46769 19.507C6.85169 19.3206 6.25355 19.0481 5.79546 18.6278C5.30861 18.1811 5 17.5815 5 16.8571C5 15.5381 6.00191 14.3123 7.18535 13.487C8.42925 12.6196 10.1271 12 12 12ZM19 13C20.0445 13 20.9923 13.3445 21.6933 13.8334C22.3339 14.2801 23 15.0237 23 15.9286C23 16.4458 22.7753 16.8749 22.4403 17.1823C22.134 17.4633 21.7555 17.6278 21.411 17.7321C20.9409 17.8743 20.3859 17.9472 19.8099 17.9792C19.9322 17.6344 20 17.2591 20 16.8571C20 15.3217 19.041 14.0184 17.9679 13.113C18.2966 13.0403 18.6426 13 19 13ZM5 13C5.35735 13 5.7034 13.0403 6.03211 13.113C4.95899 14.0184 4 15.3217 4 16.8571C4 17.2591 4.06783 17.6344 4.19007 17.9792C3.61409 17.9472 3.05908 17.8743 2.58901 17.7321C2.24445 17.6278 1.86599 17.4633 1.55971 17.1823C1.22467 16.8749 1 16.4458 1 15.9286C1 15.0237 1.66612 14.2801 2.30667 13.8334C3.00768 13.3445 3.95551 13 5 13ZM18.5 7C19.8807 7 21 8.11929 21 9.5C21 10.8807 19.8807 12 18.5 12C17.1193 12 16 10.8807 16 9.5C16 8.11929 17.1193 7 18.5 7ZM5.5 7C6.88071 7 8 8.11929 8 9.5C8 10.8807 6.88071 12 5.5 12C4.11929 12 3 10.8807 3 9.5C3 8.11929 4.11929 7 5.5 7ZM12 3C14.2091 3 16 4.79086 16 7C16 9.20914 14.2091 11 12 11C9.79086 11 8 9.20914 8 7C8 4.79086 9.79086 3 12 3Z" fill="#F5F4E7"/>
</g>
</g>
<defs>
<clipPath id="clip0_81_5659">
<rect width="24" height="24" fill="white"/>
</clipPath>
</defs>
</svg>
