<svg width="24" height="24" viewBox="0 0 24 24" fill="none" xmlns="http://www.w3.org/2000/svg">
<g id="group_3_line" clip-path="url(#clip0_81_5632)">
<g id="Group">
<path id="Vector" fill-rule="evenodd" clip-rule="evenodd" d="M12 12C13.8729 12 15.5707 12.6196 16.8146 13.487C17.9981 14.3123 19 15.5381 19 16.8571C19 17.5815 18.6914 18.1811 18.2045 18.6278C17.7464 19.0481 17.1483 19.3206 16.5323 19.507C15.301 19.8797 13.6803 20 12 20C10.3197 20 8.69903 19.8797 7.46769 19.507C6.85169 19.3206 6.25355 19.0481 5.79546 18.6278C5.30861 18.1811 5 17.5815 5 16.8571C5 15.5381 6.00191 14.3123 7.18535 13.487C8.42925 12.6196 10.1271 12 12 12ZM12 14C10.5592 14 9.25704 14.4806 8.32936 15.1275C7.34124 15.8166 7 16.5194 7 16.8571C7 17.161 7.35205 17.3514 7.67239 17.4712L7.87704 17.541L8.04703 17.5928C8.98726 17.8773 10.3666 18 12 18C13.5078 18 14.799 17.8955 15.7283 17.6556L16.0321 17.569L16.2226 17.5085C16.5654 17.3923 17 17.1947 17 16.8571C17 16.5194 16.6588 15.8166 15.6706 15.1275C14.743 14.4806 13.4408 14 12 14ZM19 13C20.0445 13 20.9923 13.3445 21.6933 13.8334C22.3339 14.2801 23 15.0237 23 15.9286C23 17.2643 21.7032 17.7418 20.5372 17.9088L20.2369 17.9456L19.9482 17.9705C19.9013 17.9738 19.8552 17.9767 19.8099 17.9792C19.9322 17.6344 20 17.2591 20 16.8571C20 16.5516 19.962 16.2552 19.8927 15.9694C20.2793 15.9398 20.5962 15.8891 20.8317 15.8178C20.9356 15.7864 20.8411 15.6883 20.7321 15.6032L20.6251 15.5254L20.5493 15.4739C20.285 15.2896 19.9418 15.1349 19.5543 15.0561C19.1735 14.2962 18.5899 13.6378 17.9679 13.113C18.2966 13.0403 18.6426 13 19 13ZM5 13C5.35735 13 5.7034 13.0403 6.03211 13.113C5.41011 13.6378 4.82646 14.2962 4.44567 15.0561C4.0582 15.1349 3.71496 15.2896 3.45069 15.4739L3.32277 15.5621C3.19597 15.6538 3.04716 15.7811 3.16835 15.8178C3.40378 15.8891 3.72066 15.9398 4.10727 15.9694C4.03798 16.2552 4 16.5516 4 16.8571C4 17.2591 4.06783 17.6344 4.19007 17.9792L3.90926 17.9594L3.61406 17.9288C2.41202 17.7817 1 17.3224 1 15.9286C1 15.0237 1.66612 14.2801 2.30667 13.8334C3.00768 13.3445 3.95551 13 5 13ZM18.5 7C19.8807 7 21 8.11929 21 9.5C21 10.8807 19.8807 12 18.5 12C17.1193 12 16 10.8807 16 9.5C16 8.11929 17.1193 7 18.5 7ZM5.5 7C6.88071 7 8 8.11929 8 9.5C8 10.8807 6.88071 12 5.5 12C4.11929 12 3 10.8807 3 9.5C3 8.11929 4.11929 7 5.5 7ZM12 3C14.2091 3 16 4.79086 16 7C16 9.20914 14.2091 11 12 11C9.79086 11 8 9.20914 8 7C8 4.79086 9.79086 3 12 3ZM18.5 9C18.2239 9 18 9.22386 18 9.5C18 9.77614 18.2239 10 18.5 10C18.7761 10 19 9.77614 19 9.5C19 9.22386 18.7761 9 18.5 9ZM5.5 9C5.22386 9 5 9.22386 5 9.5C5 9.77614 5.22386 10 5.5 10C5.77614 10 6 9.77614 6 9.5C6 9.22386 5.77614 9 5.5 9ZM12 5C10.8954 5 10 5.89543 10 7C10 8.10457 10.8954 9 12 9C13.1046 9 14 8.10457 14 7C14 5.89543 13.1046 5 12 5Z" fill="#F5F4E7"/>
</g>
</g>
<defs>
<clipPath id="clip0_81_5632">
<rect width="24" height="24" fill="white"/>
</clipPath>
</defs>
</svg>
