<svg xmlns="http://www.w3.org/2000/svg" xmlns:xlink="http://www.w3.org/1999/xlink" enable-background="new 0 0 64 64" height="64px" id="Layer_1" version="1.1" viewBox="0 0 64 64" width="64px" xml:space="preserve"><path d="M57.746,31.082l-7.573-4.044l-16.694-8.186v-4.278c0-1.104,1.178-1.587,1.178-1.587l0.003-0.01  c2.341-1.062,3.975-3.396,3.975-6.134c0-3.737-3.028-6.767-6.768-6.767c-2.993,0-5.504,1.952-6.388,4.646  c-0.006,0.025-0.308,1.213,0.529,1.213h1.307c0.214-0.019,0.605-0.135,0.907-0.711c0-0.004,0.003-0.004,0.006-0.01  c0.567-1.464,1.977-2.507,3.642-2.507c2.162,0,3.915,1.753,3.915,3.917c0,1.68-1.069,3.085-2.558,3.636l0.012,0.012  c0,0-0.104,0.029-0.241,0.075c-0.039,0.012-0.074,0.028-0.112,0.038c-0.752,0.271-2.485,1.1-2.485,3.055v0.312v5.037l-15.515,7.68  l-9.046,4.83c-0.405,0.26-1.067,0.874-1.079,2.166v0.957c0,0.832,0.672,1.504,1.504,1.504h9.195V62.42  c0,0.83,0.673,1.504,1.504,1.504h30.076c0.831,0,1.504-0.674,1.504-1.504V35.926h9.191c0.831,0,1.504-0.672,1.504-1.504v-1.004  C59.297,32.013,57.764,31.092,57.746,31.082z M45.556,54.652h-27.35v-3.854h27.35V54.652z M53.019,32.847h-1.354h-3.122v-0.502  c0-0.831-0.673-1.503-1.504-1.503H16.963c-0.831,0-1.504,0.672-1.504,1.503v0.502h-3.927h-0.596h-0.079  c-1.044,0-0.021-0.699-0.003-0.711c0.532-0.299,1.178-0.652,1.835-0.981l19.238-9.618l-0.062,0.073v-0.001l0.05,0.026l19.091,9.52  l0.32,0.191l1.042,0.573c0.006,0.001,0.009,0.004,0.015,0.007l0.635,0.35C53.019,32.276,53.976,32.847,53.019,32.847z" fill="#f5f4e7"/></svg>